%TF.GenerationSoftware,KiCad,Pcbnew,(5.1.9)-1*%
%TF.CreationDate,2021-02-25T21:12:44-03:30*%
%TF.ProjectId,annoy-o-me,616e6e6f-792d-46f2-9d6d-652e6b696361,rev?*%
%TF.SameCoordinates,Original*%
%TF.FileFunction,Soldermask,Top*%
%TF.FilePolarity,Negative*%
%FSLAX46Y46*%
G04 Gerber Fmt 4.6, Leading zero omitted, Abs format (unit mm)*
G04 Created by KiCad (PCBNEW (5.1.9)-1) date 2021-02-25 21:12:44*
%MOMM*%
%LPD*%
G01*
G04 APERTURE LIST*
%ADD10C,2.200000*%
%ADD11R,2.000000X2.000000*%
%ADD12C,2.000000*%
%ADD13R,1.800000X1.800000*%
%ADD14C,1.800000*%
%ADD15R,1.700000X1.700000*%
%ADD16O,1.700000X1.700000*%
%ADD17R,1.560000X0.650000*%
%ADD18C,0.100000*%
G04 APERTURE END LIST*
D10*
%TO.C,REF\u002A\u002A*%
X136500000Y-129500000D03*
%TD*%
D11*
%TO.C,BZ1*%
X135250000Y-108250000D03*
D12*
X127650000Y-108250000D03*
%TD*%
%TO.C,C1*%
G36*
G01*
X108600000Y-117737500D02*
X108600000Y-117262500D01*
G75*
G02*
X108837500Y-117025000I237500J0D01*
G01*
X109437500Y-117025000D01*
G75*
G02*
X109675000Y-117262500I0J-237500D01*
G01*
X109675000Y-117737500D01*
G75*
G02*
X109437500Y-117975000I-237500J0D01*
G01*
X108837500Y-117975000D01*
G75*
G02*
X108600000Y-117737500I0J237500D01*
G01*
G37*
G36*
G01*
X110325000Y-117737500D02*
X110325000Y-117262500D01*
G75*
G02*
X110562500Y-117025000I237500J0D01*
G01*
X111162500Y-117025000D01*
G75*
G02*
X111400000Y-117262500I0J-237500D01*
G01*
X111400000Y-117737500D01*
G75*
G02*
X111162500Y-117975000I-237500J0D01*
G01*
X110562500Y-117975000D01*
G75*
G02*
X110325000Y-117737500I0J237500D01*
G01*
G37*
%TD*%
%TO.C,C3*%
G36*
G01*
X111149998Y-107525000D02*
X113350002Y-107525000D01*
G75*
G02*
X113600000Y-107774998I0J-249998D01*
G01*
X113600000Y-108600002D01*
G75*
G02*
X113350002Y-108850000I-249998J0D01*
G01*
X111149998Y-108850000D01*
G75*
G02*
X110900000Y-108600002I0J249998D01*
G01*
X110900000Y-107774998D01*
G75*
G02*
X111149998Y-107525000I249998J0D01*
G01*
G37*
G36*
G01*
X111149998Y-110650000D02*
X113350002Y-110650000D01*
G75*
G02*
X113600000Y-110899998I0J-249998D01*
G01*
X113600000Y-111725002D01*
G75*
G02*
X113350002Y-111975000I-249998J0D01*
G01*
X111149998Y-111975000D01*
G75*
G02*
X110900000Y-111725002I0J249998D01*
G01*
X110900000Y-110899998D01*
G75*
G02*
X111149998Y-110650000I249998J0D01*
G01*
G37*
%TD*%
%TO.C,D1*%
G36*
G01*
X118100000Y-121049999D02*
X118100000Y-121950001D01*
G75*
G02*
X117850001Y-122200000I-249999J0D01*
G01*
X117199999Y-122200000D01*
G75*
G02*
X116950000Y-121950001I0J249999D01*
G01*
X116950000Y-121049999D01*
G75*
G02*
X117199999Y-120800000I249999J0D01*
G01*
X117850001Y-120800000D01*
G75*
G02*
X118100000Y-121049999I0J-249999D01*
G01*
G37*
G36*
G01*
X116050000Y-121049999D02*
X116050000Y-121950001D01*
G75*
G02*
X115800001Y-122200000I-249999J0D01*
G01*
X115149999Y-122200000D01*
G75*
G02*
X114900000Y-121950001I0J249999D01*
G01*
X114900000Y-121049999D01*
G75*
G02*
X115149999Y-120800000I249999J0D01*
G01*
X115800001Y-120800000D01*
G75*
G02*
X116050000Y-121049999I0J-249999D01*
G01*
G37*
%TD*%
D13*
%TO.C,D2*%
X122250000Y-103500000D03*
D14*
X119710000Y-103500000D03*
%TD*%
D15*
%TO.C,J1*%
X125750000Y-124750000D03*
D16*
X125750000Y-122210000D03*
X125750000Y-119670000D03*
%TD*%
D15*
%TO.C,J2*%
X136750000Y-124750000D03*
D16*
X136750000Y-122210000D03*
X136750000Y-119670000D03*
%TD*%
%TO.C,L1*%
G36*
G01*
X107350000Y-103549999D02*
X107350000Y-104450001D01*
G75*
G02*
X107100001Y-104700000I-249999J0D01*
G01*
X106449999Y-104700000D01*
G75*
G02*
X106200000Y-104450001I0J249999D01*
G01*
X106200000Y-103549999D01*
G75*
G02*
X106449999Y-103300000I249999J0D01*
G01*
X107100001Y-103300000D01*
G75*
G02*
X107350000Y-103549999I0J-249999D01*
G01*
G37*
G36*
G01*
X105300000Y-103549999D02*
X105300000Y-104450001D01*
G75*
G02*
X105050001Y-104700000I-249999J0D01*
G01*
X104399999Y-104700000D01*
G75*
G02*
X104150000Y-104450001I0J249999D01*
G01*
X104150000Y-103549999D01*
G75*
G02*
X104399999Y-103300000I249999J0D01*
G01*
X105050001Y-103300000D01*
G75*
G02*
X105300000Y-103549999I0J-249999D01*
G01*
G37*
%TD*%
%TO.C,R1*%
G36*
G01*
X109262500Y-107350000D02*
X109737500Y-107350000D01*
G75*
G02*
X109975000Y-107587500I0J-237500D01*
G01*
X109975000Y-108087500D01*
G75*
G02*
X109737500Y-108325000I-237500J0D01*
G01*
X109262500Y-108325000D01*
G75*
G02*
X109025000Y-108087500I0J237500D01*
G01*
X109025000Y-107587500D01*
G75*
G02*
X109262500Y-107350000I237500J0D01*
G01*
G37*
G36*
G01*
X109262500Y-109175000D02*
X109737500Y-109175000D01*
G75*
G02*
X109975000Y-109412500I0J-237500D01*
G01*
X109975000Y-109912500D01*
G75*
G02*
X109737500Y-110150000I-237500J0D01*
G01*
X109262500Y-110150000D01*
G75*
G02*
X109025000Y-109912500I0J237500D01*
G01*
X109025000Y-109412500D01*
G75*
G02*
X109262500Y-109175000I237500J0D01*
G01*
G37*
%TD*%
%TO.C,R2*%
G36*
G01*
X109262500Y-112675000D02*
X109737500Y-112675000D01*
G75*
G02*
X109975000Y-112912500I0J-237500D01*
G01*
X109975000Y-113412500D01*
G75*
G02*
X109737500Y-113650000I-237500J0D01*
G01*
X109262500Y-113650000D01*
G75*
G02*
X109025000Y-113412500I0J237500D01*
G01*
X109025000Y-112912500D01*
G75*
G02*
X109262500Y-112675000I237500J0D01*
G01*
G37*
G36*
G01*
X109262500Y-110850000D02*
X109737500Y-110850000D01*
G75*
G02*
X109975000Y-111087500I0J-237500D01*
G01*
X109975000Y-111587500D01*
G75*
G02*
X109737500Y-111825000I-237500J0D01*
G01*
X109262500Y-111825000D01*
G75*
G02*
X109025000Y-111587500I0J237500D01*
G01*
X109025000Y-111087500D01*
G75*
G02*
X109262500Y-110850000I237500J0D01*
G01*
G37*
%TD*%
%TO.C,R4*%
G36*
G01*
X116075000Y-119262500D02*
X116075000Y-119737500D01*
G75*
G02*
X115837500Y-119975000I-237500J0D01*
G01*
X115337500Y-119975000D01*
G75*
G02*
X115100000Y-119737500I0J237500D01*
G01*
X115100000Y-119262500D01*
G75*
G02*
X115337500Y-119025000I237500J0D01*
G01*
X115837500Y-119025000D01*
G75*
G02*
X116075000Y-119262500I0J-237500D01*
G01*
G37*
G36*
G01*
X117900000Y-119262500D02*
X117900000Y-119737500D01*
G75*
G02*
X117662500Y-119975000I-237500J0D01*
G01*
X117162500Y-119975000D01*
G75*
G02*
X116925000Y-119737500I0J237500D01*
G01*
X116925000Y-119262500D01*
G75*
G02*
X117162500Y-119025000I237500J0D01*
G01*
X117662500Y-119025000D01*
G75*
G02*
X117900000Y-119262500I0J-237500D01*
G01*
G37*
%TD*%
D17*
%TO.C,U1*%
X104400000Y-106050000D03*
X104400000Y-107000000D03*
X104400000Y-107950000D03*
X107100000Y-107950000D03*
X107100000Y-106050000D03*
X107100000Y-107000000D03*
%TD*%
%TO.C,U2*%
G36*
G01*
X106550000Y-119340000D02*
X106550000Y-119040000D01*
G75*
G02*
X106700000Y-118890000I150000J0D01*
G01*
X108350000Y-118890000D01*
G75*
G02*
X108500000Y-119040000I0J-150000D01*
G01*
X108500000Y-119340000D01*
G75*
G02*
X108350000Y-119490000I-150000J0D01*
G01*
X106700000Y-119490000D01*
G75*
G02*
X106550000Y-119340000I0J150000D01*
G01*
G37*
G36*
G01*
X106550000Y-120610000D02*
X106550000Y-120310000D01*
G75*
G02*
X106700000Y-120160000I150000J0D01*
G01*
X108350000Y-120160000D01*
G75*
G02*
X108500000Y-120310000I0J-150000D01*
G01*
X108500000Y-120610000D01*
G75*
G02*
X108350000Y-120760000I-150000J0D01*
G01*
X106700000Y-120760000D01*
G75*
G02*
X106550000Y-120610000I0J150000D01*
G01*
G37*
G36*
G01*
X106550000Y-121880000D02*
X106550000Y-121580000D01*
G75*
G02*
X106700000Y-121430000I150000J0D01*
G01*
X108350000Y-121430000D01*
G75*
G02*
X108500000Y-121580000I0J-150000D01*
G01*
X108500000Y-121880000D01*
G75*
G02*
X108350000Y-122030000I-150000J0D01*
G01*
X106700000Y-122030000D01*
G75*
G02*
X106550000Y-121880000I0J150000D01*
G01*
G37*
G36*
G01*
X106550000Y-123150000D02*
X106550000Y-122850000D01*
G75*
G02*
X106700000Y-122700000I150000J0D01*
G01*
X108350000Y-122700000D01*
G75*
G02*
X108500000Y-122850000I0J-150000D01*
G01*
X108500000Y-123150000D01*
G75*
G02*
X108350000Y-123300000I-150000J0D01*
G01*
X106700000Y-123300000D01*
G75*
G02*
X106550000Y-123150000I0J150000D01*
G01*
G37*
G36*
G01*
X106550000Y-124420000D02*
X106550000Y-124120000D01*
G75*
G02*
X106700000Y-123970000I150000J0D01*
G01*
X108350000Y-123970000D01*
G75*
G02*
X108500000Y-124120000I0J-150000D01*
G01*
X108500000Y-124420000D01*
G75*
G02*
X108350000Y-124570000I-150000J0D01*
G01*
X106700000Y-124570000D01*
G75*
G02*
X106550000Y-124420000I0J150000D01*
G01*
G37*
G36*
G01*
X106550000Y-125690000D02*
X106550000Y-125390000D01*
G75*
G02*
X106700000Y-125240000I150000J0D01*
G01*
X108350000Y-125240000D01*
G75*
G02*
X108500000Y-125390000I0J-150000D01*
G01*
X108500000Y-125690000D01*
G75*
G02*
X108350000Y-125840000I-150000J0D01*
G01*
X106700000Y-125840000D01*
G75*
G02*
X106550000Y-125690000I0J150000D01*
G01*
G37*
G36*
G01*
X106550000Y-126960000D02*
X106550000Y-126660000D01*
G75*
G02*
X106700000Y-126510000I150000J0D01*
G01*
X108350000Y-126510000D01*
G75*
G02*
X108500000Y-126660000I0J-150000D01*
G01*
X108500000Y-126960000D01*
G75*
G02*
X108350000Y-127110000I-150000J0D01*
G01*
X106700000Y-127110000D01*
G75*
G02*
X106550000Y-126960000I0J150000D01*
G01*
G37*
G36*
G01*
X111500000Y-126960000D02*
X111500000Y-126660000D01*
G75*
G02*
X111650000Y-126510000I150000J0D01*
G01*
X113300000Y-126510000D01*
G75*
G02*
X113450000Y-126660000I0J-150000D01*
G01*
X113450000Y-126960000D01*
G75*
G02*
X113300000Y-127110000I-150000J0D01*
G01*
X111650000Y-127110000D01*
G75*
G02*
X111500000Y-126960000I0J150000D01*
G01*
G37*
G36*
G01*
X111500000Y-125690000D02*
X111500000Y-125390000D01*
G75*
G02*
X111650000Y-125240000I150000J0D01*
G01*
X113300000Y-125240000D01*
G75*
G02*
X113450000Y-125390000I0J-150000D01*
G01*
X113450000Y-125690000D01*
G75*
G02*
X113300000Y-125840000I-150000J0D01*
G01*
X111650000Y-125840000D01*
G75*
G02*
X111500000Y-125690000I0J150000D01*
G01*
G37*
G36*
G01*
X111500000Y-124420000D02*
X111500000Y-124120000D01*
G75*
G02*
X111650000Y-123970000I150000J0D01*
G01*
X113300000Y-123970000D01*
G75*
G02*
X113450000Y-124120000I0J-150000D01*
G01*
X113450000Y-124420000D01*
G75*
G02*
X113300000Y-124570000I-150000J0D01*
G01*
X111650000Y-124570000D01*
G75*
G02*
X111500000Y-124420000I0J150000D01*
G01*
G37*
G36*
G01*
X111500000Y-123150000D02*
X111500000Y-122850000D01*
G75*
G02*
X111650000Y-122700000I150000J0D01*
G01*
X113300000Y-122700000D01*
G75*
G02*
X113450000Y-122850000I0J-150000D01*
G01*
X113450000Y-123150000D01*
G75*
G02*
X113300000Y-123300000I-150000J0D01*
G01*
X111650000Y-123300000D01*
G75*
G02*
X111500000Y-123150000I0J150000D01*
G01*
G37*
G36*
G01*
X111500000Y-121880000D02*
X111500000Y-121580000D01*
G75*
G02*
X111650000Y-121430000I150000J0D01*
G01*
X113300000Y-121430000D01*
G75*
G02*
X113450000Y-121580000I0J-150000D01*
G01*
X113450000Y-121880000D01*
G75*
G02*
X113300000Y-122030000I-150000J0D01*
G01*
X111650000Y-122030000D01*
G75*
G02*
X111500000Y-121880000I0J150000D01*
G01*
G37*
G36*
G01*
X111500000Y-120610000D02*
X111500000Y-120310000D01*
G75*
G02*
X111650000Y-120160000I150000J0D01*
G01*
X113300000Y-120160000D01*
G75*
G02*
X113450000Y-120310000I0J-150000D01*
G01*
X113450000Y-120610000D01*
G75*
G02*
X113300000Y-120760000I-150000J0D01*
G01*
X111650000Y-120760000D01*
G75*
G02*
X111500000Y-120610000I0J150000D01*
G01*
G37*
G36*
G01*
X111500000Y-119340000D02*
X111500000Y-119040000D01*
G75*
G02*
X111650000Y-118890000I150000J0D01*
G01*
X113300000Y-118890000D01*
G75*
G02*
X113450000Y-119040000I0J-150000D01*
G01*
X113450000Y-119340000D01*
G75*
G02*
X113300000Y-119490000I-150000J0D01*
G01*
X111650000Y-119490000D01*
G75*
G02*
X111500000Y-119340000I0J150000D01*
G01*
G37*
%TD*%
D16*
%TO.C,U3*%
X131250000Y-119670000D03*
X131250000Y-122210000D03*
D15*
X131250000Y-124750000D03*
%TD*%
D18*
%TO.C,JP1*%
G36*
X109000000Y-105100000D02*
G01*
X109000000Y-104600000D01*
X109000602Y-104600000D01*
X109000602Y-104575466D01*
X109005412Y-104526635D01*
X109014984Y-104478510D01*
X109029228Y-104431555D01*
X109048005Y-104386222D01*
X109071136Y-104342949D01*
X109098396Y-104302150D01*
X109129524Y-104264221D01*
X109164221Y-104229524D01*
X109202150Y-104198396D01*
X109242949Y-104171136D01*
X109286222Y-104148005D01*
X109331555Y-104129228D01*
X109378510Y-104114984D01*
X109426635Y-104105412D01*
X109475466Y-104100602D01*
X109500000Y-104100602D01*
X109500000Y-104100000D01*
X110000000Y-104100000D01*
X110000000Y-104100602D01*
X110024534Y-104100602D01*
X110073365Y-104105412D01*
X110121490Y-104114984D01*
X110168445Y-104129228D01*
X110213778Y-104148005D01*
X110257051Y-104171136D01*
X110297850Y-104198396D01*
X110335779Y-104229524D01*
X110370476Y-104264221D01*
X110401604Y-104302150D01*
X110428864Y-104342949D01*
X110451995Y-104386222D01*
X110470772Y-104431555D01*
X110485016Y-104478510D01*
X110494588Y-104526635D01*
X110499398Y-104575466D01*
X110499398Y-104600000D01*
X110500000Y-104600000D01*
X110500000Y-105100000D01*
X109000000Y-105100000D01*
G37*
G36*
X110499398Y-105900000D02*
G01*
X110499398Y-105924534D01*
X110494588Y-105973365D01*
X110485016Y-106021490D01*
X110470772Y-106068445D01*
X110451995Y-106113778D01*
X110428864Y-106157051D01*
X110401604Y-106197850D01*
X110370476Y-106235779D01*
X110335779Y-106270476D01*
X110297850Y-106301604D01*
X110257051Y-106328864D01*
X110213778Y-106351995D01*
X110168445Y-106370772D01*
X110121490Y-106385016D01*
X110073365Y-106394588D01*
X110024534Y-106399398D01*
X110000000Y-106399398D01*
X110000000Y-106400000D01*
X109500000Y-106400000D01*
X109500000Y-106399398D01*
X109475466Y-106399398D01*
X109426635Y-106394588D01*
X109378510Y-106385016D01*
X109331555Y-106370772D01*
X109286222Y-106351995D01*
X109242949Y-106328864D01*
X109202150Y-106301604D01*
X109164221Y-106270476D01*
X109129524Y-106235779D01*
X109098396Y-106197850D01*
X109071136Y-106157051D01*
X109048005Y-106113778D01*
X109029228Y-106068445D01*
X109014984Y-106021490D01*
X109005412Y-105973365D01*
X109000602Y-105924534D01*
X109000602Y-105900000D01*
X109000000Y-105900000D01*
X109000000Y-105400000D01*
X110500000Y-105400000D01*
X110500000Y-105900000D01*
X110499398Y-105900000D01*
G37*
%TD*%
M02*
