M48
; DRILL file {KiCad (5.1.9)-1} date 02/25/21 21:12:46
; FORMAT={-:-/ absolute / inch / decimal}
; #@! TF.CreationDate,2021-02-25T21:12:46-03:30
; #@! TF.GenerationSoftware,Kicad,Pcbnew,(5.1.9)-1
; #@! TF.FileFunction,Plated,1,2,PTH
FMAT,2
INCH
T1C0.0157
T2C0.0354
T3C0.0394
%
G90
G05
T1
X4.0157Y-4.0945
X4.0157Y-4.1732
X4.0157Y-4.252
X4.0157Y-4.3307
X4.124Y-4.4193
X4.124Y-4.498
X4.124Y-4.5768
X4.124Y-4.6555
X4.2126Y-3.9961
X4.2913Y-3.9961
X4.3701Y-3.9961
X4.4488Y-3.9961
X4.4488Y-4.0748
X4.4488Y-4.1535
X4.5177Y-4.498
X4.5177Y-4.5768
X4.5472Y-4.7047
X4.5768Y-4.9386
X4.5965Y-4.498
X4.5965Y-4.5768
X4.7736Y-4.6949
X4.7835Y-4.4685
X4.8425Y-4.5276
T2
X4.713Y-4.0748
X4.813Y-4.0748
T3
X4.9508Y-4.7114
X4.9508Y-4.8114
X4.9508Y-4.9114
X5.0256Y-4.2618
X5.1673Y-4.7114
X5.1673Y-4.8114
X5.1673Y-4.9114
X5.3248Y-4.2618
X5.3839Y-4.7114
X5.3839Y-4.8114
X5.3839Y-4.9114
T0
M30
