%TF.GenerationSoftware,KiCad,Pcbnew,(5.1.9)-1*%
%TF.CreationDate,2021-02-25T21:12:44-03:30*%
%TF.ProjectId,annoy-o-me,616e6e6f-792d-46f2-9d6d-652e6b696361,rev?*%
%TF.SameCoordinates,Original*%
%TF.FileFunction,Legend,Bot*%
%TF.FilePolarity,Positive*%
%FSLAX46Y46*%
G04 Gerber Fmt 4.6, Leading zero omitted, Abs format (unit mm)*
G04 Created by KiCad (PCBNEW (5.1.9)-1) date 2021-02-25 21:12:44*
%MOMM*%
%LPD*%
G01*
G04 APERTURE LIST*
%ADD10C,0.100000*%
%ADD11C,0.150000*%
%ADD12C,0.120000*%
G04 APERTURE END LIST*
D10*
G36*
X130850000Y-131200000D02*
G01*
X126450000Y-131200000D01*
X126450000Y-130000000D01*
X130850000Y-130000000D01*
X130850000Y-131200000D01*
G37*
X130850000Y-131200000D02*
X126450000Y-131200000D01*
X126450000Y-130000000D01*
X130850000Y-130000000D01*
X130850000Y-131200000D01*
D11*
X133162023Y-129141666D02*
X132685833Y-129141666D01*
X133257261Y-129427380D02*
X132923928Y-128427380D01*
X132590595Y-129427380D01*
X132257261Y-128760714D02*
X132257261Y-129427380D01*
X132257261Y-128855952D02*
X132209642Y-128808333D01*
X132114404Y-128760714D01*
X131971547Y-128760714D01*
X131876309Y-128808333D01*
X131828690Y-128903571D01*
X131828690Y-129427380D01*
X131352500Y-128760714D02*
X131352500Y-129427380D01*
X131352500Y-128855952D02*
X131304880Y-128808333D01*
X131209642Y-128760714D01*
X131066785Y-128760714D01*
X130971547Y-128808333D01*
X130923928Y-128903571D01*
X130923928Y-129427380D01*
X130304880Y-129427380D02*
X130400119Y-129379761D01*
X130447738Y-129332142D01*
X130495357Y-129236904D01*
X130495357Y-128951190D01*
X130447738Y-128855952D01*
X130400119Y-128808333D01*
X130304880Y-128760714D01*
X130162023Y-128760714D01*
X130066785Y-128808333D01*
X130019166Y-128855952D01*
X129971547Y-128951190D01*
X129971547Y-129236904D01*
X130019166Y-129332142D01*
X130066785Y-129379761D01*
X130162023Y-129427380D01*
X130304880Y-129427380D01*
X129638214Y-128760714D02*
X129400119Y-129427380D01*
X129162023Y-128760714D02*
X129400119Y-129427380D01*
X129495357Y-129665476D01*
X129542976Y-129713095D01*
X129638214Y-129760714D01*
X128781071Y-129046428D02*
X128019166Y-129046428D01*
X127352500Y-128427380D02*
X127162023Y-128427380D01*
X127066785Y-128475000D01*
X126971547Y-128570238D01*
X126923928Y-128760714D01*
X126923928Y-129094047D01*
X126971547Y-129284523D01*
X127066785Y-129379761D01*
X127162023Y-129427380D01*
X127352500Y-129427380D01*
X127447738Y-129379761D01*
X127542976Y-129284523D01*
X127590595Y-129094047D01*
X127590595Y-128760714D01*
X127542976Y-128570238D01*
X127447738Y-128475000D01*
X127352500Y-128427380D01*
X126495357Y-129046428D02*
X125733452Y-129046428D01*
X125257261Y-129427380D02*
X125257261Y-128427380D01*
X124923928Y-129141666D01*
X124590595Y-128427380D01*
X124590595Y-129427380D01*
X123733452Y-129379761D02*
X123828690Y-129427380D01*
X124019166Y-129427380D01*
X124114404Y-129379761D01*
X124162023Y-129284523D01*
X124162023Y-128903571D01*
X124114404Y-128808333D01*
X124019166Y-128760714D01*
X123828690Y-128760714D01*
X123733452Y-128808333D01*
X123685833Y-128903571D01*
X123685833Y-128998809D01*
X124162023Y-129094047D01*
X121923928Y-129427380D02*
X122257261Y-128951190D01*
X122495357Y-129427380D02*
X122495357Y-128427380D01*
X122114404Y-128427380D01*
X122019166Y-128475000D01*
X121971547Y-128522619D01*
X121923928Y-128617857D01*
X121923928Y-128760714D01*
X121971547Y-128855952D01*
X122019166Y-128903571D01*
X122114404Y-128951190D01*
X122495357Y-128951190D01*
X121495357Y-128903571D02*
X121162023Y-128903571D01*
X121019166Y-129427380D02*
X121495357Y-129427380D01*
X121495357Y-128427380D01*
X121019166Y-128427380D01*
X120733452Y-128427380D02*
X120400119Y-129427380D01*
X120066785Y-128427380D01*
X119019166Y-129141666D02*
X118542976Y-129141666D01*
X119114404Y-129427380D02*
X118781071Y-128427380D01*
X118447738Y-129427380D01*
X133162023Y-131029761D02*
X133019166Y-131077380D01*
X132781071Y-131077380D01*
X132685833Y-131029761D01*
X132638214Y-130982142D01*
X132590595Y-130886904D01*
X132590595Y-130791666D01*
X132638214Y-130696428D01*
X132685833Y-130648809D01*
X132781071Y-130601190D01*
X132971547Y-130553571D01*
X133066785Y-130505952D01*
X133114404Y-130458333D01*
X133162023Y-130363095D01*
X133162023Y-130267857D01*
X133114404Y-130172619D01*
X133066785Y-130125000D01*
X132971547Y-130077380D01*
X132733452Y-130077380D01*
X132590595Y-130125000D01*
X132162023Y-131077380D02*
X132162023Y-130077380D01*
X131590595Y-131077380D01*
X131590595Y-130077380D01*
X131114404Y-130982142D02*
X131066785Y-131029761D01*
X131114404Y-131077380D01*
X131162023Y-131029761D01*
X131114404Y-130982142D01*
X131114404Y-131077380D01*
X131114404Y-130458333D02*
X131066785Y-130505952D01*
X131114404Y-130553571D01*
X131162023Y-130505952D01*
X131114404Y-130458333D01*
X131114404Y-130553571D01*
D12*
%TO.C,BT1*%
X108250000Y-132050000D02*
X108250000Y-127250000D01*
X113750000Y-132050000D02*
X108250000Y-132050000D01*
X113750000Y-127250000D02*
X113750000Y-132050000D01*
X113750000Y-100950000D02*
X113750000Y-105750000D01*
X108250000Y-100950000D02*
X113750000Y-100950000D01*
X108250000Y-105750000D02*
X108250000Y-100950000D01*
X101500000Y-127050000D02*
X101500000Y-120350000D01*
X101500000Y-105950000D02*
X101500000Y-112650000D01*
X121850000Y-120450000D02*
X117050000Y-127250000D01*
X121850000Y-112550000D02*
X121850000Y-120450000D01*
X117050000Y-105700000D02*
X121850000Y-112550000D01*
X101498536Y-112653615D02*
G75*
G03*
X101500000Y-120350000I9501464J-3846385D01*
G01*
%TO.C,C2*%
X105961252Y-104610000D02*
X104538748Y-104610000D01*
X105961252Y-101890000D02*
X104538748Y-101890000D01*
%TO.C,C4*%
X134510000Y-120353733D02*
X134510000Y-120646267D01*
X133490000Y-120353733D02*
X133490000Y-120646267D01*
%TO.C,C5*%
X127990000Y-120353733D02*
X127990000Y-120646267D01*
X129010000Y-120353733D02*
X129010000Y-120646267D01*
%TO.C,R3*%
X124995276Y-104022500D02*
X125504724Y-104022500D01*
X124995276Y-102977500D02*
X125504724Y-102977500D01*
%TO.C,BT1*%
D11*
X120628571Y-106564285D02*
X120676190Y-106707142D01*
X120723809Y-106754761D01*
X120819047Y-106802380D01*
X120961904Y-106802380D01*
X121057142Y-106754761D01*
X121104761Y-106707142D01*
X121152380Y-106611904D01*
X121152380Y-106230952D01*
X120152380Y-106230952D01*
X120152380Y-106564285D01*
X120200000Y-106659523D01*
X120247619Y-106707142D01*
X120342857Y-106754761D01*
X120438095Y-106754761D01*
X120533333Y-106707142D01*
X120580952Y-106659523D01*
X120628571Y-106564285D01*
X120628571Y-106230952D01*
X120152380Y-107088095D02*
X120152380Y-107659523D01*
X121152380Y-107373809D02*
X120152380Y-107373809D01*
X121152380Y-108516666D02*
X121152380Y-107945238D01*
X121152380Y-108230952D02*
X120152380Y-108230952D01*
X120295238Y-108135714D01*
X120390476Y-108040476D01*
X120438095Y-107945238D01*
%TO.C,C2*%
X105416666Y-101307142D02*
X105464285Y-101354761D01*
X105607142Y-101402380D01*
X105702380Y-101402380D01*
X105845238Y-101354761D01*
X105940476Y-101259523D01*
X105988095Y-101164285D01*
X106035714Y-100973809D01*
X106035714Y-100830952D01*
X105988095Y-100640476D01*
X105940476Y-100545238D01*
X105845238Y-100450000D01*
X105702380Y-100402380D01*
X105607142Y-100402380D01*
X105464285Y-100450000D01*
X105416666Y-100497619D01*
X105035714Y-100497619D02*
X104988095Y-100450000D01*
X104892857Y-100402380D01*
X104654761Y-100402380D01*
X104559523Y-100450000D01*
X104511904Y-100497619D01*
X104464285Y-100592857D01*
X104464285Y-100688095D01*
X104511904Y-100830952D01*
X105083333Y-101402380D01*
X104464285Y-101402380D01*
%TO.C,C4*%
X134357142Y-117583333D02*
X134404761Y-117535714D01*
X134452380Y-117392857D01*
X134452380Y-117297619D01*
X134404761Y-117154761D01*
X134309523Y-117059523D01*
X134214285Y-117011904D01*
X134023809Y-116964285D01*
X133880952Y-116964285D01*
X133690476Y-117011904D01*
X133595238Y-117059523D01*
X133500000Y-117154761D01*
X133452380Y-117297619D01*
X133452380Y-117392857D01*
X133500000Y-117535714D01*
X133547619Y-117583333D01*
X133785714Y-118440476D02*
X134452380Y-118440476D01*
X133404761Y-118202380D02*
X134119047Y-117964285D01*
X134119047Y-118583333D01*
%TO.C,C5*%
X128857142Y-117583333D02*
X128904761Y-117535714D01*
X128952380Y-117392857D01*
X128952380Y-117297619D01*
X128904761Y-117154761D01*
X128809523Y-117059523D01*
X128714285Y-117011904D01*
X128523809Y-116964285D01*
X128380952Y-116964285D01*
X128190476Y-117011904D01*
X128095238Y-117059523D01*
X128000000Y-117154761D01*
X127952380Y-117297619D01*
X127952380Y-117392857D01*
X128000000Y-117535714D01*
X128047619Y-117583333D01*
X127952380Y-118488095D02*
X127952380Y-118011904D01*
X128428571Y-117964285D01*
X128380952Y-118011904D01*
X128333333Y-118107142D01*
X128333333Y-118345238D01*
X128380952Y-118440476D01*
X128428571Y-118488095D01*
X128523809Y-118535714D01*
X128761904Y-118535714D01*
X128857142Y-118488095D01*
X128904761Y-118440476D01*
X128952380Y-118345238D01*
X128952380Y-118107142D01*
X128904761Y-118011904D01*
X128857142Y-117964285D01*
%TO.C,R3*%
X125416666Y-105382380D02*
X125750000Y-104906190D01*
X125988095Y-105382380D02*
X125988095Y-104382380D01*
X125607142Y-104382380D01*
X125511904Y-104430000D01*
X125464285Y-104477619D01*
X125416666Y-104572857D01*
X125416666Y-104715714D01*
X125464285Y-104810952D01*
X125511904Y-104858571D01*
X125607142Y-104906190D01*
X125988095Y-104906190D01*
X125083333Y-104382380D02*
X124464285Y-104382380D01*
X124797619Y-104763333D01*
X124654761Y-104763333D01*
X124559523Y-104810952D01*
X124511904Y-104858571D01*
X124464285Y-104953809D01*
X124464285Y-105191904D01*
X124511904Y-105287142D01*
X124559523Y-105334761D01*
X124654761Y-105382380D01*
X124940476Y-105382380D01*
X125035714Y-105334761D01*
X125083333Y-105287142D01*
%TD*%
M02*
