%TF.GenerationSoftware,KiCad,Pcbnew,(5.1.9)-1*%
%TF.CreationDate,2021-02-25T21:12:44-03:30*%
%TF.ProjectId,annoy-o-me,616e6e6f-792d-46f2-9d6d-652e6b696361,rev?*%
%TF.SameCoordinates,Original*%
%TF.FileFunction,Soldermask,Bot*%
%TF.FilePolarity,Negative*%
%FSLAX46Y46*%
G04 Gerber Fmt 4.6, Leading zero omitted, Abs format (unit mm)*
G04 Created by KiCad (PCBNEW (5.1.9)-1) date 2021-02-25 21:12:44*
%MOMM*%
%LPD*%
G01*
G04 APERTURE LIST*
%ADD10C,2.200000*%
%ADD11R,5.100000X5.100000*%
%ADD12C,17.800000*%
%ADD13R,2.000000X2.000000*%
%ADD14C,2.000000*%
%ADD15R,1.800000X1.800000*%
%ADD16C,1.800000*%
%ADD17R,1.700000X1.700000*%
%ADD18O,1.700000X1.700000*%
G04 APERTURE END LIST*
D10*
%TO.C,REF\u002A\u002A*%
X136500000Y-129500000D03*
%TD*%
D11*
%TO.C,BT1*%
X111000000Y-129300000D03*
X111000000Y-103700000D03*
D12*
X111000000Y-116500000D03*
%TD*%
D13*
%TO.C,BZ1*%
X135250000Y-108250000D03*
D14*
X127650000Y-108250000D03*
%TD*%
%TO.C,C2*%
G36*
G01*
X104350000Y-102149998D02*
X104350000Y-104350002D01*
G75*
G02*
X104100002Y-104600000I-249998J0D01*
G01*
X103274998Y-104600000D01*
G75*
G02*
X103025000Y-104350002I0J249998D01*
G01*
X103025000Y-102149998D01*
G75*
G02*
X103274998Y-101900000I249998J0D01*
G01*
X104100002Y-101900000D01*
G75*
G02*
X104350000Y-102149998I0J-249998D01*
G01*
G37*
G36*
G01*
X107475000Y-102149998D02*
X107475000Y-104350002D01*
G75*
G02*
X107225002Y-104600000I-249998J0D01*
G01*
X106399998Y-104600000D01*
G75*
G02*
X106150000Y-104350002I0J249998D01*
G01*
X106150000Y-102149998D01*
G75*
G02*
X106399998Y-101900000I249998J0D01*
G01*
X107225002Y-101900000D01*
G75*
G02*
X107475000Y-102149998I0J-249998D01*
G01*
G37*
%TD*%
%TO.C,C4*%
G36*
G01*
X133762500Y-120825000D02*
X134237500Y-120825000D01*
G75*
G02*
X134475000Y-121062500I0J-237500D01*
G01*
X134475000Y-121662500D01*
G75*
G02*
X134237500Y-121900000I-237500J0D01*
G01*
X133762500Y-121900000D01*
G75*
G02*
X133525000Y-121662500I0J237500D01*
G01*
X133525000Y-121062500D01*
G75*
G02*
X133762500Y-120825000I237500J0D01*
G01*
G37*
G36*
G01*
X133762500Y-119100000D02*
X134237500Y-119100000D01*
G75*
G02*
X134475000Y-119337500I0J-237500D01*
G01*
X134475000Y-119937500D01*
G75*
G02*
X134237500Y-120175000I-237500J0D01*
G01*
X133762500Y-120175000D01*
G75*
G02*
X133525000Y-119937500I0J237500D01*
G01*
X133525000Y-119337500D01*
G75*
G02*
X133762500Y-119100000I237500J0D01*
G01*
G37*
%TD*%
%TO.C,C5*%
G36*
G01*
X128262500Y-119100000D02*
X128737500Y-119100000D01*
G75*
G02*
X128975000Y-119337500I0J-237500D01*
G01*
X128975000Y-119937500D01*
G75*
G02*
X128737500Y-120175000I-237500J0D01*
G01*
X128262500Y-120175000D01*
G75*
G02*
X128025000Y-119937500I0J237500D01*
G01*
X128025000Y-119337500D01*
G75*
G02*
X128262500Y-119100000I237500J0D01*
G01*
G37*
G36*
G01*
X128262500Y-120825000D02*
X128737500Y-120825000D01*
G75*
G02*
X128975000Y-121062500I0J-237500D01*
G01*
X128975000Y-121662500D01*
G75*
G02*
X128737500Y-121900000I-237500J0D01*
G01*
X128262500Y-121900000D01*
G75*
G02*
X128025000Y-121662500I0J237500D01*
G01*
X128025000Y-121062500D01*
G75*
G02*
X128262500Y-120825000I237500J0D01*
G01*
G37*
%TD*%
D15*
%TO.C,D2*%
X122250000Y-103500000D03*
D16*
X119710000Y-103500000D03*
%TD*%
D17*
%TO.C,J1*%
X125750000Y-124750000D03*
D18*
X125750000Y-122210000D03*
X125750000Y-119670000D03*
%TD*%
D17*
%TO.C,J2*%
X136750000Y-124750000D03*
D18*
X136750000Y-122210000D03*
X136750000Y-119670000D03*
%TD*%
%TO.C,R3*%
G36*
G01*
X123850000Y-103737500D02*
X123850000Y-103262500D01*
G75*
G02*
X124087500Y-103025000I237500J0D01*
G01*
X124587500Y-103025000D01*
G75*
G02*
X124825000Y-103262500I0J-237500D01*
G01*
X124825000Y-103737500D01*
G75*
G02*
X124587500Y-103975000I-237500J0D01*
G01*
X124087500Y-103975000D01*
G75*
G02*
X123850000Y-103737500I0J237500D01*
G01*
G37*
G36*
G01*
X125675000Y-103737500D02*
X125675000Y-103262500D01*
G75*
G02*
X125912500Y-103025000I237500J0D01*
G01*
X126412500Y-103025000D01*
G75*
G02*
X126650000Y-103262500I0J-237500D01*
G01*
X126650000Y-103737500D01*
G75*
G02*
X126412500Y-103975000I-237500J0D01*
G01*
X125912500Y-103975000D01*
G75*
G02*
X125675000Y-103737500I0J237500D01*
G01*
G37*
%TD*%
%TO.C,U3*%
X131250000Y-119670000D03*
X131250000Y-122210000D03*
D17*
X131250000Y-124750000D03*
%TD*%
M02*
